<svg id="visual" viewBox="0 0 960 300" width="960" height="300" xmlns="http://www.w3.org/2000/svg" xmlns:xlink="http://www.w3.org/1999/xlink" version="1.1"><rect x="0" y="0" width="960" height="300" fill="#192029"></rect><path d="M0 166L9.3 168.3C18.7 170.7 37.3 175.3 56.2 176.8C75 178.3 94 176.7 112.8 173.5C131.7 170.3 150.3 165.7 169.2 159C188 152.3 207 143.7 225.8 138.2C244.7 132.7 263.3 130.3 282.2 131C301 131.7 320 135.3 338.8 135.5C357.7 135.7 376.3 132.3 395.2 136.3C414 140.3 433 151.7 451.8 160.5C470.7 169.3 489.3 175.7 508.2 178.3C527 181 546 180 564.8 175.8C583.7 171.7 602.3 164.3 621.2 166.5C640 168.7 659 180.3 677.8 178.7C696.7 177 715.3 162 734.2 161.3C753 160.7 772 174.3 790.8 180.2C809.7 186 828.3 184 847.2 175.5C866 167 885 152 903.8 143.3C922.7 134.7 941.3 132.3 950.7 131.2L960 130L960 301L950.7 301C941.3 301 922.7 301 903.8 301C885 301 866 301 847.2 301C828.3 301 809.7 301 790.8 301C772 301 753 301 734.2 301C715.3 301 696.7 301 677.8 301C659 301 640 301 621.2 301C602.3 301 583.7 301 564.8 301C546 301 527 301 508.2 301C489.3 301 470.7 301 451.8 301C433 301 414 301 395.2 301C376.3 301 357.7 301 338.8 301C320 301 301 301 282.2 301C263.3 301 244.7 301 225.8 301C207 301 188 301 169.2 301C150.3 301 131.7 301 112.8 301C94 301 75 301 56.2 301C37.3 301 18.7 301 9.3 301L0 301Z" fill="#63ff9c"></path><path d="M0 180L9.3 177C18.7 174 37.3 168 56.2 169.2C75 170.3 94 178.7 112.8 186.5C131.7 194.3 150.3 201.7 169.2 201.8C188 202 207 195 225.8 190.7C244.7 186.3 263.3 184.7 282.2 180.7C301 176.7 320 170.3 338.8 166.7C357.7 163 376.3 162 395.2 161.8C414 161.7 433 162.3 451.8 163.7C470.7 165 489.3 167 508.2 174.8C527 182.7 546 196.3 564.8 202.8C583.7 209.3 602.3 208.7 621.2 202.2C640 195.7 659 183.3 677.8 179.3C696.7 175.3 715.3 179.7 734.2 184.5C753 189.3 772 194.7 790.8 191.8C809.7 189 828.3 178 847.2 175.5C866 173 885 179 903.8 180.8C922.7 182.7 941.3 180.3 950.7 179.2L960 178L960 301L950.7 301C941.3 301 922.7 301 903.8 301C885 301 866 301 847.2 301C828.3 301 809.7 301 790.8 301C772 301 753 301 734.2 301C715.3 301 696.7 301 677.8 301C659 301 640 301 621.2 301C602.3 301 583.7 301 564.8 301C546 301 527 301 508.2 301C489.3 301 470.7 301 451.8 301C433 301 414 301 395.2 301C376.3 301 357.7 301 338.8 301C320 301 301 301 282.2 301C263.3 301 244.7 301 225.8 301C207 301 188 301 169.2 301C150.3 301 131.7 301 112.8 301C94 301 75 301 56.2 301C37.3 301 18.7 301 9.3 301L0 301Z" fill="#52f089"></path><path d="M0 187L9.3 191.2C18.7 195.3 37.3 203.7 56.2 205.8C75 208 94 204 112.8 199.7C131.7 195.3 150.3 190.7 169.2 193.2C188 195.7 207 205.3 225.8 208.3C244.7 211.3 263.3 207.7 282.2 203.7C301 199.7 320 195.3 338.8 198.3C357.7 201.3 376.3 211.7 395.2 218.3C414 225 433 228 451.8 229.2C470.7 230.3 489.3 229.7 508.2 223.2C527 216.7 546 204.3 564.8 201.8C583.7 199.3 602.3 206.7 621.2 209.2C640 211.7 659 209.3 677.8 211C696.7 212.7 715.3 218.3 734.2 223.2C753 228 772 232 790.8 229.3C809.7 226.7 828.3 217.3 847.2 209.8C866 202.3 885 196.7 903.8 197.7C922.7 198.7 941.3 206.3 950.7 210.2L960 214L960 301L950.7 301C941.3 301 922.7 301 903.8 301C885 301 866 301 847.2 301C828.3 301 809.7 301 790.8 301C772 301 753 301 734.2 301C715.3 301 696.7 301 677.8 301C659 301 640 301 621.2 301C602.3 301 583.7 301 564.8 301C546 301 527 301 508.2 301C489.3 301 470.7 301 451.8 301C433 301 414 301 395.2 301C376.3 301 357.7 301 338.8 301C320 301 301 301 282.2 301C263.3 301 244.7 301 225.8 301C207 301 188 301 169.2 301C150.3 301 131.7 301 112.8 301C94 301 75 301 56.2 301C37.3 301 18.7 301 9.3 301L0 301Z" fill="#41e275"></path><path d="M0 253L9.3 247.8C18.7 242.7 37.3 232.3 56.2 226.2C75 220 94 218 112.8 218.7C131.7 219.3 150.3 222.7 169.2 227C188 231.3 207 236.7 225.8 239.7C244.7 242.7 263.3 243.3 282.2 241C301 238.7 320 233.3 338.8 228.8C357.7 224.3 376.3 220.7 395.2 224.7C414 228.7 433 240.3 451.8 240.7C470.7 241 489.3 230 508.2 224.5C527 219 546 219 564.8 224.2C583.7 229.3 602.3 239.7 621.2 241.2C640 242.7 659 235.3 677.8 235.8C696.7 236.3 715.3 244.7 734.2 245.3C753 246 772 239 790.8 234C809.7 229 828.3 226 847.2 228.7C866 231.3 885 239.7 903.8 242.3C922.7 245 941.3 242 950.7 240.5L960 239L960 301L950.7 301C941.3 301 922.7 301 903.8 301C885 301 866 301 847.2 301C828.3 301 809.7 301 790.8 301C772 301 753 301 734.2 301C715.3 301 696.7 301 677.8 301C659 301 640 301 621.2 301C602.3 301 583.7 301 564.8 301C546 301 527 301 508.2 301C489.3 301 470.7 301 451.8 301C433 301 414 301 395.2 301C376.3 301 357.7 301 338.8 301C320 301 301 301 282.2 301C263.3 301 244.7 301 225.8 301C207 301 188 301 169.2 301C150.3 301 131.7 301 112.8 301C94 301 75 301 56.2 301C37.3 301 18.7 301 9.3 301L0 301Z" fill="#2ed362"></path><path d="M0 279L9.3 279.3C18.7 279.7 37.3 280.3 56.2 280.7C75 281 94 281 112.8 280.3C131.7 279.7 150.3 278.3 169.2 275.8C188 273.3 207 269.7 225.8 269.2C244.7 268.7 263.3 271.3 282.2 270.7C301 270 320 266 338.8 266.8C357.7 267.7 376.3 273.3 395.2 275.7C414 278 433 277 451.8 272.5C470.7 268 489.3 260 508.2 258.8C527 257.7 546 263.3 564.8 263.8C583.7 264.3 602.3 259.7 621.2 258.5C640 257.3 659 259.7 677.8 263.5C696.7 267.3 715.3 272.7 734.2 273.8C753 275 772 272 790.8 267C809.7 262 828.3 255 847.2 256.8C866 258.7 885 269.3 903.8 270.3C922.7 271.3 941.3 262.7 950.7 258.3L960 254L960 301L950.7 301C941.3 301 922.7 301 903.8 301C885 301 866 301 847.2 301C828.3 301 809.7 301 790.8 301C772 301 753 301 734.2 301C715.3 301 696.7 301 677.8 301C659 301 640 301 621.2 301C602.3 301 583.7 301 564.8 301C546 301 527 301 508.2 301C489.3 301 470.7 301 451.8 301C433 301 414 301 395.2 301C376.3 301 357.7 301 338.8 301C320 301 301 301 282.2 301C263.3 301 244.7 301 225.8 301C207 301 188 301 169.2 301C150.3 301 131.7 301 112.8 301C94 301 75 301 56.2 301C37.3 301 18.7 301 9.3 301L0 301Z" fill="#12c54e"></path></svg>