<svg id="visual" viewBox="0 0 960 300" width="960" height="300" xmlns="http://www.w3.org/2000/svg" xmlns:xlink="http://www.w3.org/1999/xlink" version="1.1"><rect x="0" y="0" width="960" height="300" fill="#192029"></rect><path d="M0 132L9.3 129.7C18.7 127.3 37.3 122.7 56.2 121.2C75 119.7 94 121.3 112.8 124.5C131.7 127.7 150.3 132.3 169.2 139C188 145.7 207 154.3 225.8 159.8C244.7 165.3 263.3 167.7 282.2 167C301 166.3 320 162.7 338.8 162.5C357.7 162.3 376.3 165.7 395.2 161.7C414 157.7 433 146.3 451.8 137.5C470.7 128.7 489.3 122.3 508.2 119.7C527 117 546 118 564.8 122.2C583.7 126.3 602.3 133.7 621.2 131.5C640 129.3 659 117.7 677.8 119.3C696.7 121 715.3 136 734.2 136.7C753 137.3 772 123.7 790.8 117.8C809.7 112 828.3 114 847.2 122.5C866 131 885 146 903.8 154.7C922.7 163.3 941.3 165.7 950.7 166.8L960 168L960 0L950.7 0C941.3 0 922.7 0 903.8 0C885 0 866 0 847.2 0C828.3 0 809.7 0 790.8 0C772 0 753 0 734.2 0C715.3 0 696.7 0 677.8 0C659 0 640 0 621.2 0C602.3 0 583.7 0 564.8 0C546 0 527 0 508.2 0C489.3 0 470.7 0 451.8 0C433 0 414 0 395.2 0C376.3 0 357.7 0 338.8 0C320 0 301 0 282.2 0C263.3 0 244.7 0 225.8 0C207 0 188 0 169.2 0C150.3 0 131.7 0 112.8 0C94 0 75 0 56.2 0C37.3 0 18.7 0 9.3 0L0 0Z" fill="#63ff9c"></path><path d="M0 118L9.3 121C18.7 124 37.3 130 56.2 128.8C75 127.7 94 119.3 112.8 111.5C131.7 103.7 150.3 96.3 169.2 96.2C188 96 207 103 225.8 107.3C244.7 111.7 263.3 113.3 282.2 117.3C301 121.3 320 127.7 338.8 131.3C357.7 135 376.3 136 395.2 136.2C414 136.3 433 135.7 451.8 134.3C470.7 133 489.3 131 508.2 123.2C527 115.3 546 101.7 564.8 95.2C583.7 88.7 602.3 89.3 621.2 95.8C640 102.3 659 114.7 677.8 118.7C696.7 122.7 715.3 118.3 734.2 113.5C753 108.7 772 103.3 790.8 106.2C809.7 109 828.3 120 847.2 122.5C866 125 885 119 903.8 117.2C922.7 115.3 941.3 117.7 950.7 118.8L960 120L960 0L950.7 0C941.3 0 922.7 0 903.8 0C885 0 866 0 847.2 0C828.3 0 809.7 0 790.8 0C772 0 753 0 734.2 0C715.3 0 696.7 0 677.8 0C659 0 640 0 621.2 0C602.3 0 583.7 0 564.8 0C546 0 527 0 508.2 0C489.3 0 470.7 0 451.8 0C433 0 414 0 395.2 0C376.3 0 357.7 0 338.8 0C320 0 301 0 282.2 0C263.3 0 244.7 0 225.8 0C207 0 188 0 169.2 0C150.3 0 131.7 0 112.8 0C94 0 75 0 56.2 0C37.3 0 18.7 0 9.3 0L0 0Z" fill="#52f089"></path><path d="M0 111L9.3 106.8C18.7 102.7 37.3 94.3 56.2 92.2C75 90 94 94 112.8 98.3C131.7 102.7 150.3 107.3 169.2 104.8C188 102.3 207 92.7 225.8 89.7C244.7 86.7 263.3 90.3 282.2 94.3C301 98.3 320 102.7 338.8 99.7C357.7 96.7 376.3 86.3 395.2 79.7C414 73 433 70 451.8 68.8C470.7 67.7 489.3 68.3 508.2 74.8C527 81.3 546 93.7 564.8 96.2C583.7 98.7 602.3 91.3 621.2 88.8C640 86.3 659 88.7 677.8 87C696.7 85.3 715.3 79.7 734.2 74.8C753 70 772 66 790.8 68.7C809.7 71.3 828.3 80.7 847.2 88.2C866 95.7 885 101.3 903.8 100.3C922.7 99.3 941.3 91.7 950.7 87.8L960 84L960 0L950.7 0C941.3 0 922.7 0 903.8 0C885 0 866 0 847.2 0C828.3 0 809.7 0 790.8 0C772 0 753 0 734.2 0C715.3 0 696.7 0 677.8 0C659 0 640 0 621.2 0C602.3 0 583.7 0 564.8 0C546 0 527 0 508.2 0C489.3 0 470.7 0 451.8 0C433 0 414 0 395.2 0C376.3 0 357.7 0 338.8 0C320 0 301 0 282.2 0C263.3 0 244.7 0 225.8 0C207 0 188 0 169.2 0C150.3 0 131.7 0 112.8 0C94 0 75 0 56.2 0C37.3 0 18.7 0 9.3 0L0 0Z" fill="#41e275"></path><path d="M0 45L9.3 50.2C18.7 55.3 37.3 65.7 56.2 71.8C75 78 94 80 112.8 79.3C131.7 78.7 150.3 75.3 169.2 71C188 66.7 207 61.3 225.8 58.3C244.7 55.3 263.3 54.7 282.2 57C301 59.3 320 64.7 338.8 69.2C357.7 73.7 376.3 77.3 395.2 73.3C414 69.3 433 57.7 451.8 57.3C470.7 57 489.3 68 508.2 73.5C527 79 546 79 564.8 73.8C583.7 68.7 602.3 58.3 621.2 56.8C640 55.3 659 62.7 677.8 62.2C696.7 61.7 715.3 53.3 734.2 52.7C753 52 772 59 790.8 64C809.7 69 828.3 72 847.2 69.3C866 66.7 885 58.3 903.8 55.7C922.7 53 941.3 56 950.7 57.5L960 59L960 0L950.7 0C941.3 0 922.7 0 903.8 0C885 0 866 0 847.2 0C828.3 0 809.7 0 790.8 0C772 0 753 0 734.2 0C715.3 0 696.7 0 677.8 0C659 0 640 0 621.2 0C602.3 0 583.7 0 564.8 0C546 0 527 0 508.2 0C489.3 0 470.7 0 451.8 0C433 0 414 0 395.2 0C376.3 0 357.7 0 338.8 0C320 0 301 0 282.2 0C263.3 0 244.7 0 225.8 0C207 0 188 0 169.2 0C150.3 0 131.7 0 112.8 0C94 0 75 0 56.2 0C37.3 0 18.7 0 9.3 0L0 0Z" fill="#2ed362"></path><path d="M0 19L9.3 18.7C18.7 18.3 37.3 17.7 56.2 17.3C75 17 94 17 112.8 17.7C131.7 18.3 150.3 19.7 169.2 22.2C188 24.7 207 28.3 225.8 28.8C244.7 29.3 263.3 26.7 282.2 27.3C301 28 320 32 338.8 31.2C357.7 30.3 376.3 24.7 395.2 22.3C414 20 433 21 451.8 25.5C470.7 30 489.3 38 508.2 39.2C527 40.3 546 34.7 564.8 34.2C583.7 33.7 602.3 38.3 621.2 39.5C640 40.7 659 38.3 677.8 34.5C696.7 30.7 715.3 25.3 734.2 24.2C753 23 772 26 790.8 31C809.7 36 828.3 43 847.2 41.2C866 39.3 885 28.7 903.8 27.7C922.7 26.7 941.3 35.3 950.7 39.7L960 44L960 0L950.7 0C941.3 0 922.7 0 903.8 0C885 0 866 0 847.2 0C828.3 0 809.7 0 790.8 0C772 0 753 0 734.2 0C715.3 0 696.7 0 677.8 0C659 0 640 0 621.2 0C602.3 0 583.7 0 564.8 0C546 0 527 0 508.2 0C489.3 0 470.7 0 451.8 0C433 0 414 0 395.2 0C376.3 0 357.7 0 338.8 0C320 0 301 0 282.2 0C263.3 0 244.7 0 225.8 0C207 0 188 0 169.2 0C150.3 0 131.7 0 112.8 0C94 0 75 0 56.2 0C37.3 0 18.7 0 9.3 0L0 0Z" fill="#12c54e"></path></svg>